<svg width="1792" height="1792" xmlns="http://www.w3.org/2000/svg">

 <g>
  <title>background</title>
  <rect fill="none" id="canvas_background" height="402" width="582" y="-1" x="-1"/>
 </g>
 <g>
  <title>Layer 1</title>
  <path fill="#bdbdbd" id="svg_1" d="m1472,989l0,259q0,119 -84.5,203.5t-203.5,84.5l-832,0q-119,0 -203.5,-84.5t-84.5,-203.5l0,-832q0,-119 84.5,-203.5t203.5,-84.5l255,0q13,0 22.5,9.5t9.5,22.5q0,27 -26,32q-77,26 -133,60q-10,4 -16,4l-112,0q-66,0 -113,47t-47,113l0,832q0,66 47,113t113,47l832,0q66,0 113,-47t47,-113l0,-214q0,-19 18,-29q28,-13 54,-37q16,-16 35,-8q21,9 21,29zm237,-496l-384,384q-18,19 -45,19q-12,0 -25,-5q-39,-17 -39,-59l0,-192l-160,0q-323,0 -438,131q-119,137 -74,473q3,23 -20,34q-8,2 -12,2q-16,0 -26,-13q-10,-14 -21,-31t-39.5,-68.5t-49.5,-99.5t-38.5,-114t-17.5,-122q0,-49 3.5,-91t14,-90t28,-88t47,-81.5t68.5,-74t94.5,-61.5t124.5,-48.5t159.5,-30.5t196.5,-11l160,0l0,-192q0,-42 39,-59q13,-5 25,-5q26,0 45,19l384,384q19,19 19,45t-19,45z"/>
 </g>
</svg>